<mxfile host="65bd71144e">
    <diagram id="3cUGU1u6pG_o_R58JLAc" name="v1">
        <mxGraphModel dx="1796" dy="1884" grid="1" gridSize="10" guides="1" tooltips="1" connect="1" arrows="1" fold="1" page="1" pageScale="1" pageWidth="850" pageHeight="1100" math="0" shadow="0">
            <root>
                <mxCell id="0"/>
                <mxCell id="1" parent="0"/>
                <mxCell id="4" value="Student" style="shape=umlActor;verticalLabelPosition=bottom;verticalAlign=top;html=1;outlineConnect=0;" parent="1" vertex="1">
                    <mxGeometry x="-425" y="70" width="30" height="60" as="geometry"/>
                </mxCell>
                <mxCell id="7" value="Instructor" style="shape=umlActor;verticalLabelPosition=bottom;verticalAlign=top;html=1;outlineConnect=0;" parent="1" vertex="1">
                    <mxGeometry x="1135" y="-857.5" width="30" height="60" as="geometry"/>
                </mxCell>
                <mxCell id="9" value="Create&lt;br&gt;Assignment" style="ellipse;whiteSpace=wrap;html=1;" parent="1" vertex="1">
                    <mxGeometry x="1310" y="-867.5" width="120" height="80" as="geometry"/>
                </mxCell>
                <mxCell id="11" value="Edit&lt;br&gt;Assignment" style="ellipse;whiteSpace=wrap;html=1;" parent="1" vertex="1">
                    <mxGeometry x="1310" y="-767.5" width="120" height="80" as="geometry"/>
                </mxCell>
                <mxCell id="12" value="Create&lt;br&gt;Questions" style="ellipse;whiteSpace=wrap;html=1;" parent="1" vertex="1">
                    <mxGeometry x="895" y="-860" width="120" height="80" as="geometry"/>
                </mxCell>
                <mxCell id="13" value="Edit Question" style="ellipse;whiteSpace=wrap;html=1;" parent="1" vertex="1">
                    <mxGeometry x="895" y="-770" width="120" height="80" as="geometry"/>
                </mxCell>
                <mxCell id="14" value="Delete&lt;br&gt;Question" style="ellipse;whiteSpace=wrap;html=1;" parent="1" vertex="1">
                    <mxGeometry x="895" y="-680" width="120" height="80" as="geometry"/>
                </mxCell>
                <mxCell id="15" value="Add Students&lt;br&gt;to Assignment" style="ellipse;whiteSpace=wrap;html=1;" parent="1" vertex="1">
                    <mxGeometry x="640" y="-170" width="120" height="80" as="geometry"/>
                </mxCell>
                <mxCell id="16" value="Publish&lt;br&gt;Assignment" style="ellipse;whiteSpace=wrap;html=1;" parent="1" vertex="1">
                    <mxGeometry x="775" y="-170" width="120" height="80" as="geometry"/>
                </mxCell>
                <mxCell id="17" value="View Assignment Details" style="ellipse;whiteSpace=wrap;html=1;" parent="1" vertex="1">
                    <mxGeometry x="1310" y="-967.5" width="120" height="80" as="geometry"/>
                </mxCell>
                <mxCell id="18" value="View All&lt;br&gt;Assignment" style="ellipse;whiteSpace=wrap;html=1;" parent="1" vertex="1">
                    <mxGeometry x="1310" y="-1067.5" width="120" height="80" as="geometry"/>
                </mxCell>
                <mxCell id="19" value="View Question&lt;br&gt;Details" style="ellipse;whiteSpace=wrap;html=1;" parent="1" vertex="1">
                    <mxGeometry x="895" y="-950" width="120" height="80" as="geometry"/>
                </mxCell>
                <mxCell id="20" value="View All&lt;br&gt;Question" style="ellipse;whiteSpace=wrap;html=1;" parent="1" vertex="1">
                    <mxGeometry x="895" y="-1040" width="120" height="80" as="geometry"/>
                </mxCell>
                <mxCell id="59" value="Close&lt;br&gt;Assignment" style="ellipse;whiteSpace=wrap;html=1;" parent="1" vertex="1">
                    <mxGeometry x="915" y="-110" width="120" height="80" as="geometry"/>
                </mxCell>
                <mxCell id="60" value="Delete&lt;br&gt;Assignment" style="ellipse;whiteSpace=wrap;html=1;" parent="1" vertex="1">
                    <mxGeometry x="1310" y="-667.5" width="120" height="80" as="geometry"/>
                </mxCell>
                <mxCell id="61" value="Open&lt;br&gt;Assignment" style="ellipse;whiteSpace=wrap;html=1;" parent="1" vertex="1">
                    <mxGeometry x="915" y="-240" width="120" height="80" as="geometry"/>
                </mxCell>
                <mxCell id="62" value="Shedule&lt;br&gt;Assignment" style="ellipse;whiteSpace=wrap;html=1;" parent="1" vertex="1">
                    <mxGeometry x="1100" y="-290" width="120" height="80" as="geometry"/>
                </mxCell>
                <mxCell id="63" value="SignIn to Assignment" style="ellipse;whiteSpace=wrap;html=1;" parent="1" vertex="1">
                    <mxGeometry x="-145" y="-95" width="120" height="80" as="geometry"/>
                </mxCell>
                <mxCell id="65" value="View Assignment&lt;br&gt;Public View" style="ellipse;whiteSpace=wrap;html=1;" parent="1" vertex="1">
                    <mxGeometry x="-145" y="130" width="120" height="80" as="geometry"/>
                </mxCell>
                <mxCell id="66" value="View Question Public View" style="ellipse;whiteSpace=wrap;html=1;" parent="1" vertex="1">
                    <mxGeometry x="-145" y="240" width="120" height="80" as="geometry"/>
                </mxCell>
                <mxCell id="67" value="Leave from Assignment" style="ellipse;whiteSpace=wrap;html=1;" parent="1" vertex="1">
                    <mxGeometry x="-145" y="15" width="120" height="80" as="geometry"/>
                </mxCell>
                <mxCell id="68" value="Run solution on remote hosts" style="ellipse;whiteSpace=wrap;html=1;" parent="1" vertex="1">
                    <mxGeometry x="-325" y="-175" width="120" height="80" as="geometry"/>
                </mxCell>
                <mxCell id="69" value="Submit Solution" style="ellipse;whiteSpace=wrap;html=1;" parent="1" vertex="1">
                    <mxGeometry x="-325" y="-70" width="120" height="80" as="geometry"/>
                </mxCell>
                <mxCell id="70" value="View Submission&lt;br&gt;Result" style="ellipse;whiteSpace=wrap;html=1;" parent="1" vertex="1">
                    <mxGeometry x="-325" y="137.5" width="120" height="80" as="geometry"/>
                </mxCell>
                <mxCell id="71" value="View All Submissions" style="ellipse;whiteSpace=wrap;html=1;" parent="1" vertex="1">
                    <mxGeometry x="-325" y="32.5" width="120" height="80" as="geometry"/>
                </mxCell>
                <mxCell id="72" value="View All Assignments have Joined" style="ellipse;whiteSpace=wrap;html=1;" parent="1" vertex="1">
                    <mxGeometry x="-325" y="240" width="120" height="80" as="geometry"/>
                </mxCell>
                <mxCell id="73" value="View Assingment Result" style="ellipse;whiteSpace=wrap;html=1;" parent="1" vertex="1">
                    <mxGeometry x="-325" y="340" width="120" height="80" as="geometry"/>
                </mxCell>
                <mxCell id="74" value="Share Result with Public" style="ellipse;whiteSpace=wrap;html=1;" parent="1" vertex="1">
                    <mxGeometry x="-630" y="62.5" width="120" height="80" as="geometry"/>
                </mxCell>
                <mxCell id="75" value="Give Assignment Final Marks" style="ellipse;whiteSpace=wrap;html=1;" parent="1" vertex="1">
                    <mxGeometry x="775" y="86.25" width="120" height="80" as="geometry"/>
                </mxCell>
                <mxCell id="76" value="View Plaigarism Report for Assignment" style="ellipse;whiteSpace=wrap;html=1;" parent="1" vertex="1">
                    <mxGeometry x="950" y="137.5" width="120" height="80" as="geometry"/>
                </mxCell>
                <mxCell id="78" value="Generate Plaigarism Report for Assignment" style="ellipse;whiteSpace=wrap;html=1;" parent="1" vertex="1">
                    <mxGeometry x="950" y="47.5" width="120" height="80" as="geometry"/>
                </mxCell>
                <mxCell id="79" value="Give student feedback to a submission" style="ellipse;whiteSpace=wrap;html=1;" parent="1" vertex="1">
                    <mxGeometry x="775" y="193.75" width="120" height="80" as="geometry"/>
                </mxCell>
                <mxCell id="2" value="SignUp" style="ellipse;whiteSpace=wrap;html=1;" parent="1" vertex="1">
                    <mxGeometry x="-600" y="-1030" width="120" height="80" as="geometry"/>
                </mxCell>
                <mxCell id="30" style="edgeStyle=orthogonalEdgeStyle;curved=1;rounded=0;orthogonalLoop=1;jettySize=auto;html=1;entryX=1;entryY=0.5;entryDx=0;entryDy=0;" parent="1" source="5" target="2" edge="1">
                    <mxGeometry x="-780" y="-1060" as="geometry"/>
                </mxCell>
                <mxCell id="5" value="User" style="shape=umlActor;verticalLabelPosition=bottom;verticalAlign=top;html=1;outlineConnect=0;" parent="1" vertex="1">
                    <mxGeometry x="-280" y="-830" width="30" height="60" as="geometry"/>
                </mxCell>
                <mxCell id="8" value="SignIn" style="ellipse;whiteSpace=wrap;html=1;" parent="1" vertex="1">
                    <mxGeometry x="-660" y="-930" width="120" height="80" as="geometry"/>
                </mxCell>
                <mxCell id="31" style="edgeStyle=orthogonalEdgeStyle;curved=1;rounded=0;orthogonalLoop=1;jettySize=auto;html=1;entryX=1;entryY=0.5;entryDx=0;entryDy=0;" parent="1" source="5" target="8" edge="1">
                    <mxGeometry x="-780" y="-1060" as="geometry"/>
                </mxCell>
                <mxCell id="27" value="Change&lt;br&gt;User Details" style="ellipse;whiteSpace=wrap;html=1;" parent="1" vertex="1">
                    <mxGeometry x="-660" y="-730" width="120" height="80" as="geometry"/>
                </mxCell>
                <mxCell id="33" style="edgeStyle=orthogonalEdgeStyle;curved=1;rounded=0;orthogonalLoop=1;jettySize=auto;html=1;entryX=1;entryY=0.5;entryDx=0;entryDy=0;" parent="1" source="5" target="27" edge="1">
                    <mxGeometry x="-780" y="-1060" as="geometry"/>
                </mxCell>
                <mxCell id="28" value="Reset Password" style="ellipse;whiteSpace=wrap;html=1;" parent="1" vertex="1">
                    <mxGeometry x="-600" y="-620" width="120" height="80" as="geometry"/>
                </mxCell>
                <mxCell id="34" style="edgeStyle=orthogonalEdgeStyle;curved=1;rounded=0;orthogonalLoop=1;jettySize=auto;html=1;entryX=1;entryY=0.5;entryDx=0;entryDy=0;" parent="1" source="5" target="28" edge="1">
                    <mxGeometry x="-780" y="-1060" as="geometry"/>
                </mxCell>
                <mxCell id="29" value="View&lt;br&gt;User Profile" style="ellipse;whiteSpace=wrap;html=1;" parent="1" vertex="1">
                    <mxGeometry x="-740" y="-840" width="120" height="80" as="geometry"/>
                </mxCell>
                <mxCell id="32" style="edgeStyle=orthogonalEdgeStyle;curved=1;rounded=0;orthogonalLoop=1;jettySize=auto;html=1;entryX=1;entryY=0.5;entryDx=0;entryDy=0;" parent="1" source="5" target="29" edge="1">
                    <mxGeometry x="-780" y="-1060" as="geometry"/>
                </mxCell>
                <mxCell id="47" style="edgeStyle=orthogonalEdgeStyle;curved=1;rounded=0;orthogonalLoop=1;jettySize=auto;html=1;entryX=0;entryY=1;entryDx=0;entryDy=0;dashed=1;startArrow=openThin;startFill=0;endArrow=none;endFill=0;exitX=0;exitY=0.5;exitDx=0;exitDy=0;" parent="1" source="27" target="29" edge="1">
                    <mxGeometry x="-780" y="-1060" as="geometry"/>
                </mxCell>
                <mxCell id="54" value="&amp;lt;&amp;lt;extends&amp;gt;&amp;gt;" style="edgeLabel;html=1;align=center;verticalAlign=middle;resizable=0;points=[];" parent="47" vertex="1" connectable="0">
                    <mxGeometry x="0.3624" y="-7" relative="1" as="geometry">
                        <mxPoint x="-5" y="-4" as="offset"/>
                    </mxGeometry>
                </mxCell>
                <mxCell id="35" value="Enable/Disable&lt;br&gt;User Account" style="ellipse;whiteSpace=wrap;html=1;" parent="1" vertex="1">
                    <mxGeometry x="120" y="-840" width="120" height="80" as="geometry"/>
                </mxCell>
                <mxCell id="36" value="View All Users" style="ellipse;whiteSpace=wrap;html=1;" parent="1" vertex="1">
                    <mxGeometry x="120" y="-940" width="120" height="80" as="geometry"/>
                </mxCell>
                <mxCell id="37" value="Verify User&lt;br&gt;Account" style="ellipse;whiteSpace=wrap;html=1;" parent="1" vertex="1">
                    <mxGeometry x="120" y="-740" width="120" height="80" as="geometry"/>
                </mxCell>
                <mxCell id="44" style="edgeStyle=orthogonalEdgeStyle;curved=1;rounded=0;orthogonalLoop=1;jettySize=auto;html=1;entryX=0;entryY=0.5;entryDx=0;entryDy=0;" parent="1" source="38" target="36" edge="1">
                    <mxGeometry x="-780" y="-1060" as="geometry"/>
                </mxCell>
                <mxCell id="45" style="edgeStyle=orthogonalEdgeStyle;curved=1;rounded=0;orthogonalLoop=1;jettySize=auto;html=1;entryX=0;entryY=0.5;entryDx=0;entryDy=0;" parent="1" source="38" target="35" edge="1">
                    <mxGeometry x="-780" y="-1060" as="geometry"/>
                </mxCell>
                <mxCell id="46" style="edgeStyle=orthogonalEdgeStyle;curved=1;rounded=0;orthogonalLoop=1;jettySize=auto;html=1;entryX=0;entryY=0.5;entryDx=0;entryDy=0;" parent="1" source="38" target="37" edge="1">
                    <mxGeometry x="-780" y="-1060" as="geometry"/>
                </mxCell>
                <mxCell id="55" style="edgeStyle=orthogonalEdgeStyle;curved=1;rounded=0;orthogonalLoop=1;jettySize=auto;html=1;startArrow=none;startFill=0;endArrow=block;endFill=0;" parent="1" target="5" edge="1">
                    <mxGeometry x="-740" y="-1060" as="geometry">
                        <mxPoint x="-229.99999999999977" y="-799.9999999999999" as="targetPoint"/>
                        <mxPoint x="-140" y="-800" as="sourcePoint"/>
                    </mxGeometry>
                </mxCell>
                <mxCell id="38" value="Admin" style="shape=umlActor;verticalLabelPosition=bottom;verticalAlign=top;html=1;outlineConnect=0;" parent="1" vertex="1">
                    <mxGeometry x="-120" y="-830" width="30" height="60" as="geometry"/>
                </mxCell>
                <mxCell id="56" style="edgeStyle=orthogonalEdgeStyle;rounded=0;orthogonalLoop=1;jettySize=auto;html=1;startArrow=none;startFill=0;endArrow=block;endFill=0;" parent="1" edge="1">
                    <mxGeometry x="-740" y="-1060" as="geometry">
                        <mxPoint x="-250" y="-800" as="targetPoint"/>
                        <mxPoint x="-140" y="-930" as="sourcePoint"/>
                        <Array as="points">
                            <mxPoint x="-140" y="-930"/>
                            <mxPoint x="-180" y="-930"/>
                            <mxPoint x="-180" y="-800"/>
                        </Array>
                    </mxGeometry>
                </mxCell>
                <mxCell id="41" value="Student" style="shape=umlActor;verticalLabelPosition=bottom;verticalAlign=top;html=1;outlineConnect=0;" parent="1" vertex="1">
                    <mxGeometry x="-120" y="-960" width="30" height="60" as="geometry"/>
                </mxCell>
                <mxCell id="57" style="edgeStyle=orthogonalEdgeStyle;rounded=0;orthogonalLoop=1;jettySize=auto;html=1;startArrow=none;startFill=0;endArrow=block;endFill=0;" parent="1" edge="1">
                    <mxGeometry x="-740" y="-1060" as="geometry">
                        <mxPoint x="-249.99999999999977" y="-799.9999999999999" as="targetPoint"/>
                        <mxPoint x="-140" y="-670" as="sourcePoint"/>
                        <Array as="points">
                            <mxPoint x="-180" y="-800"/>
                        </Array>
                    </mxGeometry>
                </mxCell>
                <mxCell id="42" value="Instructor" style="shape=umlActor;verticalLabelPosition=bottom;verticalAlign=top;html=1;outlineConnect=0;" parent="1" vertex="1">
                    <mxGeometry x="-120" y="-700" width="30" height="60" as="geometry"/>
                </mxCell>
            </root>
        </mxGraphModel>
    </diagram>
</mxfile>